<svg xmlns="http://www.w3.org/2000/svg" xmlns:xlink="http://www.w3.org/1999/xlink" width="500" zoomAndPan="magnify" viewBox="0 0 375 127.500001" height="170" preserveAspectRatio="xMidYMid meet" version="1.0"><defs><g/><clipPath id="96061744c9"><path d="M 0.730469 0 L 127.734375 0 L 127.734375 78 L 0.730469 78 Z M 0.730469 0 " clip-rule="nonzero"/></clipPath></defs><g clip-path="url(#96061744c9)"><path fill="#5271ff" d="M 104.957031 77.769531 L 23.4375 77.769531 C 10.917969 77.769531 0.730469 67.585938 0.730469 55.066406 C 0.730469 48.050781 3.9375 41.519531 9.394531 37.230469 C 8.988281 35.636719 8.78125 34 8.78125 32.339844 C 8.78125 21.441406 17.648438 12.578125 28.542969 12.578125 C 30.125 12.578125 31.691406 12.765625 33.21875 13.140625 C 40.402344 4.765625 50.730469 0 61.828125 0 C 71.394531 0 80.519531 3.585938 87.519531 10.101562 C 93.875 16.019531 97.957031 23.847656 99.167969 32.363281 L 104.957031 32.363281 C 117.476562 32.363281 127.660156 42.546875 127.660156 55.066406 C 127.660156 67.585938 117.476562 77.769531 104.957031 77.769531 Z M 28.542969 17.867188 C 20.5625 17.867188 14.070312 24.359375 14.070312 32.339844 C 14.070312 34.0625 14.371094 35.746094 14.960938 37.347656 C 15.390625 38.503906 14.960938 39.804688 13.929688 40.476562 C 8.976562 43.714844 6.019531 49.167969 6.019531 55.066406 C 6.019531 64.667969 13.832031 72.480469 23.4375 72.480469 L 104.957031 72.480469 C 114.558594 72.480469 122.371094 64.667969 122.371094 55.066406 C 122.371094 45.460938 114.558594 37.648438 104.957031 37.648438 L 96.796875 37.648438 C 95.414062 37.648438 94.265625 36.585938 94.160156 35.207031 C 92.878906 18.429688 78.675781 5.289062 61.828125 5.289062 C 51.765625 5.289062 42.4375 9.847656 36.238281 17.796875 C 35.542969 18.6875 34.355469 19.039062 33.289062 18.667969 C 31.757812 18.136719 30.160156 17.867188 28.542969 17.867188 Z M 28.542969 17.867188 " fill-opacity="1" fill-rule="nonzero"/></g><path fill="#5271ff" d="M 37.753906 121.640625 L 29.820312 121.640625 C 28.359375 121.640625 27.175781 120.457031 27.175781 118.996094 C 27.175781 117.535156 28.359375 116.351562 29.820312 116.351562 L 35.109375 116.351562 L 35.109375 75.125 C 35.109375 73.664062 36.292969 72.480469 37.753906 72.480469 C 39.214844 72.480469 40.398438 73.664062 40.398438 75.125 L 40.398438 118.996094 C 40.398438 120.457031 39.214844 121.640625 37.753906 121.640625 Z M 37.753906 121.640625 " fill-opacity="1" fill-rule="nonzero"/><path fill="#5271ff" d="M 24.53125 126.929688 C 20.15625 126.929688 16.597656 123.371094 16.597656 118.996094 C 16.597656 114.621094 20.15625 111.0625 24.53125 111.0625 C 28.90625 111.0625 32.464844 114.621094 32.464844 118.996094 C 32.464844 123.371094 28.90625 126.929688 24.53125 126.929688 Z M 24.53125 116.351562 C 23.074219 116.351562 21.886719 117.539062 21.886719 118.996094 C 21.886719 120.453125 23.074219 121.640625 24.53125 121.640625 C 25.988281 121.640625 27.175781 120.453125 27.175781 118.996094 C 27.175781 117.539062 25.988281 116.351562 24.53125 116.351562 Z M 24.53125 116.351562 " fill-opacity="1" fill-rule="nonzero"/><path fill="#5271ff" d="M 11.308594 111.0625 C 6.933594 111.0625 3.375 107.503906 3.375 103.128906 C 3.375 98.753906 6.933594 95.195312 11.308594 95.195312 C 15.683594 95.195312 19.242188 98.753906 19.242188 103.128906 C 19.242188 107.503906 15.683594 111.0625 11.308594 111.0625 Z M 11.308594 100.484375 C 9.851562 100.484375 8.664062 101.671875 8.664062 103.128906 C 8.664062 104.589844 9.851562 105.773438 11.308594 105.773438 C 12.769531 105.773438 13.953125 104.589844 13.953125 103.128906 C 13.953125 101.671875 12.769531 100.484375 11.308594 100.484375 Z M 11.308594 100.484375 " fill-opacity="1" fill-rule="nonzero"/><path fill="#5271ff" d="M 87.996094 121.640625 L 74.773438 121.640625 C 73.3125 121.640625 72.128906 120.457031 72.128906 118.996094 L 72.128906 75.125 C 72.128906 73.664062 73.3125 72.480469 74.773438 72.480469 C 76.234375 72.480469 77.417969 73.664062 77.417969 75.125 L 77.417969 116.351562 L 87.996094 116.351562 C 89.457031 116.351562 90.640625 117.535156 90.640625 118.996094 C 90.640625 120.457031 89.457031 121.640625 87.996094 121.640625 Z M 87.996094 121.640625 " fill-opacity="1" fill-rule="nonzero"/><path fill="#5271ff" d="M 93.285156 126.929688 C 88.910156 126.929688 85.351562 123.371094 85.351562 118.996094 C 85.351562 114.621094 88.910156 111.0625 93.285156 111.0625 C 97.660156 111.0625 101.21875 114.621094 101.21875 118.996094 C 101.21875 123.371094 97.660156 126.929688 93.285156 126.929688 Z M 93.285156 116.351562 C 91.828125 116.351562 90.640625 117.539062 90.640625 118.996094 C 90.640625 120.453125 91.828125 121.640625 93.285156 121.640625 C 94.742188 121.640625 95.929688 120.453125 95.929688 118.996094 C 95.929688 117.539062 94.742188 116.351562 93.285156 116.351562 Z M 93.285156 116.351562 " fill-opacity="1" fill-rule="nonzero"/><path fill="#5271ff" d="M 111.796875 105.773438 C 107.421875 105.773438 103.863281 102.214844 103.863281 97.839844 C 103.863281 93.46875 107.421875 89.90625 111.796875 89.90625 C 116.167969 89.90625 119.726562 93.46875 119.726562 97.839844 C 119.726562 102.214844 116.167969 105.773438 111.796875 105.773438 Z M 111.796875 95.195312 C 110.335938 95.195312 109.152344 96.382812 109.152344 97.839844 C 109.152344 99.300781 110.335938 100.484375 111.796875 100.484375 C 113.253906 100.484375 114.441406 99.300781 114.441406 97.839844 C 114.441406 96.382812 113.253906 95.195312 111.796875 95.195312 Z M 111.796875 95.195312 " fill-opacity="1" fill-rule="nonzero"/><path fill="#5271ff" d="M 106.507812 100.484375 L 58.910156 100.484375 C 57.449219 100.484375 56.265625 99.300781 56.265625 97.839844 L 56.265625 75.125 C 56.265625 73.664062 57.449219 72.480469 58.910156 72.480469 C 60.367188 72.480469 61.550781 73.664062 61.550781 75.125 L 61.550781 95.195312 L 106.507812 95.195312 C 107.96875 95.195312 109.152344 96.382812 109.152344 97.839844 C 109.152344 99.300781 107.96875 100.484375 106.507812 100.484375 Z M 106.507812 100.484375 " fill-opacity="1" fill-rule="nonzero"/><path fill="#5271ff" d="M 48.332031 105.773438 L 16.597656 105.773438 C 15.136719 105.773438 13.953125 104.589844 13.953125 103.128906 C 13.953125 101.667969 15.136719 100.484375 16.597656 100.484375 L 45.6875 100.484375 L 45.6875 75.125 C 45.6875 73.664062 46.871094 72.480469 48.332031 72.480469 C 49.792969 72.480469 50.976562 73.664062 50.976562 75.125 L 50.976562 103.128906 C 50.976562 104.589844 49.792969 105.773438 48.332031 105.773438 Z M 48.332031 105.773438 " fill-opacity="1" fill-rule="nonzero"/><g fill="#1e015b" fill-opacity="1"><g transform="translate(137.394922, 76.990134)"><g><path d="M 1.765625 -17.65625 C 1.765625 -21.269531 2.445312 -24.441406 3.8125 -27.171875 C 5.175781 -29.910156 7.035156 -32.015625 9.390625 -33.484375 C 11.742188 -34.953125 14.375 -35.6875 17.28125 -35.6875 C 19.757812 -35.6875 21.929688 -35.179688 23.796875 -34.171875 C 25.671875 -33.171875 27.113281 -31.847656 28.125 -30.203125 L 28.125 -35.1875 L 38.90625 -35.1875 L 38.90625 0 L 28.125 0 L 28.125 -4.984375 C 27.070312 -3.335938 25.609375 -2.007812 23.734375 -1 C 21.867188 0 19.695312 0.5 17.21875 0.5 C 14.351562 0.5 11.742188 -0.242188 9.390625 -1.734375 C 7.035156 -3.222656 5.175781 -5.34375 3.8125 -8.09375 C 2.445312 -10.851562 1.765625 -14.039062 1.765625 -17.65625 Z M 28.125 -17.59375 C 28.125 -20.28125 27.375 -22.398438 25.875 -23.953125 C 24.382812 -25.515625 22.570312 -26.296875 20.4375 -26.296875 C 18.289062 -26.296875 16.46875 -25.523438 14.96875 -23.984375 C 13.476562 -22.453125 12.734375 -20.34375 12.734375 -17.65625 C 12.734375 -14.96875 13.476562 -12.832031 14.96875 -11.25 C 16.46875 -9.675781 18.289062 -8.890625 20.4375 -8.890625 C 22.570312 -8.890625 24.382812 -9.664062 25.875 -11.21875 C 27.375 -12.78125 28.125 -14.90625 28.125 -17.59375 Z M 28.125 -17.59375 "/></g></g></g><g fill="#1e015b" fill-opacity="1"><g transform="translate(180.210841, 76.990134)"><g><path d="M 14.6875 -46.671875 L 14.6875 0 L 3.90625 0 L 3.90625 -46.671875 Z M 14.6875 -46.671875 "/></g></g></g><g fill="#1e015b" fill-opacity="1"><g transform="translate(198.81275, 76.990134)"><g><path d="M 37.078125 -18.15625 C 37.078125 -17.15625 37.015625 -16.109375 36.890625 -15.015625 L 12.484375 -15.015625 C 12.648438 -12.828125 13.351562 -11.15625 14.59375 -10 C 15.832031 -8.84375 17.359375 -8.265625 19.171875 -8.265625 C 21.859375 -8.265625 23.726562 -9.398438 24.78125 -11.671875 L 36.265625 -11.671875 C 35.671875 -9.359375 34.609375 -7.273438 33.078125 -5.421875 C 31.546875 -3.578125 29.625 -2.128906 27.3125 -1.078125 C 25 -0.0234375 22.410156 0.5 19.546875 0.5 C 16.097656 0.5 13.03125 -0.234375 10.34375 -1.703125 C 7.65625 -3.171875 5.550781 -5.269531 4.03125 -8 C 2.519531 -10.738281 1.765625 -13.9375 1.765625 -17.59375 C 1.765625 -21.25 2.507812 -24.441406 4 -27.171875 C 5.5 -29.910156 7.59375 -32.015625 10.28125 -33.484375 C 12.96875 -34.953125 16.054688 -35.6875 19.546875 -35.6875 C 22.953125 -35.6875 25.976562 -34.972656 28.625 -33.546875 C 31.28125 -32.117188 33.351562 -30.078125 34.84375 -27.421875 C 36.332031 -24.773438 37.078125 -21.6875 37.078125 -18.15625 Z M 26.046875 -21 C 26.046875 -22.851562 25.414062 -24.320312 24.15625 -25.40625 C 22.894531 -26.5 21.316406 -27.046875 19.421875 -27.046875 C 17.617188 -27.046875 16.09375 -26.519531 14.84375 -25.46875 C 13.601562 -24.425781 12.835938 -22.9375 12.546875 -21 Z M 26.046875 -21 "/></g></g></g><g fill="#1e015b" fill-opacity="1"><g transform="translate(237.656061, 76.990134)"><g><path d="M 48.8125 -35.5625 C 53.1875 -35.5625 56.664062 -34.238281 59.25 -31.59375 C 61.832031 -28.945312 63.125 -25.269531 63.125 -20.5625 L 63.125 0 L 52.40625 0 L 52.40625 -19.109375 C 52.40625 -21.378906 51.804688 -23.132812 50.609375 -24.375 C 49.410156 -25.613281 47.757812 -26.234375 45.65625 -26.234375 C 43.550781 -26.234375 41.898438 -25.613281 40.703125 -24.375 C 39.503906 -23.132812 38.90625 -21.378906 38.90625 -19.109375 L 38.90625 0 L 28.1875 0 L 28.1875 -19.109375 C 28.1875 -21.378906 27.585938 -23.132812 26.390625 -24.375 C 25.191406 -25.613281 23.539062 -26.234375 21.4375 -26.234375 C 19.332031 -26.234375 17.679688 -25.613281 16.484375 -24.375 C 15.285156 -23.132812 14.6875 -21.378906 14.6875 -19.109375 L 14.6875 0 L 3.90625 0 L 3.90625 -35.1875 L 14.6875 -35.1875 L 14.6875 -30.78125 C 15.78125 -32.25 17.207031 -33.410156 18.96875 -34.265625 C 20.738281 -35.128906 22.738281 -35.5625 24.96875 -35.5625 C 27.625 -35.5625 29.988281 -34.992188 32.0625 -33.859375 C 34.144531 -32.722656 35.773438 -31.109375 36.953125 -29.015625 C 38.171875 -30.941406 39.832031 -32.515625 41.9375 -33.734375 C 44.039062 -34.953125 46.332031 -35.5625 48.8125 -35.5625 Z M 48.8125 -35.5625 "/></g></g></g><g fill="#1e015b" fill-opacity="1"><g transform="translate(304.433755, 76.990134)"><g><path d="M 1.765625 -17.65625 C 1.765625 -21.269531 2.445312 -24.441406 3.8125 -27.171875 C 5.175781 -29.910156 7.035156 -32.015625 9.390625 -33.484375 C 11.742188 -34.953125 14.375 -35.6875 17.28125 -35.6875 C 19.757812 -35.6875 21.929688 -35.179688 23.796875 -34.171875 C 25.671875 -33.171875 27.113281 -31.847656 28.125 -30.203125 L 28.125 -35.1875 L 38.90625 -35.1875 L 38.90625 0 L 28.125 0 L 28.125 -4.984375 C 27.070312 -3.335938 25.609375 -2.007812 23.734375 -1 C 21.867188 0 19.695312 0.5 17.21875 0.5 C 14.351562 0.5 11.742188 -0.242188 9.390625 -1.734375 C 7.035156 -3.222656 5.175781 -5.34375 3.8125 -8.09375 C 2.445312 -10.851562 1.765625 -14.039062 1.765625 -17.65625 Z M 28.125 -17.59375 C 28.125 -20.28125 27.375 -22.398438 25.875 -23.953125 C 24.382812 -25.515625 22.570312 -26.296875 20.4375 -26.296875 C 18.289062 -26.296875 16.46875 -25.523438 14.96875 -23.984375 C 13.476562 -22.453125 12.734375 -20.34375 12.734375 -17.65625 C 12.734375 -14.96875 13.476562 -12.832031 14.96875 -11.25 C 16.46875 -9.675781 18.289062 -8.890625 20.4375 -8.890625 C 22.570312 -8.890625 24.382812 -9.664062 25.875 -11.21875 C 27.375 -12.78125 28.125 -14.90625 28.125 -17.59375 Z M 28.125 -17.59375 "/></g></g></g><g fill="#1e015b" fill-opacity="1"><g transform="translate(347.249674, 76.990134)"><g><path d="M 14.6875 -29.328125 C 15.945312 -31.253906 17.523438 -32.773438 19.421875 -33.890625 C 21.316406 -35.003906 23.421875 -35.5625 25.734375 -35.5625 L 25.734375 -24.15625 L 22.765625 -24.15625 C 20.078125 -24.15625 18.054688 -23.578125 16.703125 -22.421875 C 15.359375 -21.265625 14.6875 -19.234375 14.6875 -16.328125 L 14.6875 0 L 3.90625 0 L 3.90625 -35.1875 L 14.6875 -35.1875 Z M 14.6875 -29.328125 "/></g></g></g><g fill="#5271ff" fill-opacity="1"><g transform="translate(138.071955, 104.71088)"><g><path d="M 19.1875 -13.109375 L 15.78125 0 L 11.90625 0 L 9.828125 -8.625 L 7.65625 0 L 3.796875 0 L 0.46875 -13.109375 L 3.890625 -13.109375 L 5.765625 -3.5625 L 8.109375 -13.109375 L 11.609375 -13.109375 L 13.859375 -3.5625 L 15.765625 -13.109375 Z M 19.1875 -13.109375 "/></g></g></g><g fill="#5271ff" fill-opacity="1"><g transform="translate(159.12064, 104.71088)"><g><path d="M 10.984375 -5.375 C 10.984375 -5.070312 10.960938 -4.757812 10.921875 -4.4375 L 3.703125 -4.4375 C 3.742188 -3.789062 3.945312 -3.296875 4.3125 -2.953125 C 4.6875 -2.617188 5.140625 -2.453125 5.671875 -2.453125 C 6.472656 -2.453125 7.03125 -2.785156 7.34375 -3.453125 L 10.734375 -3.453125 C 10.554688 -2.765625 10.238281 -2.144531 9.78125 -1.59375 C 9.332031 -1.050781 8.765625 -0.625 8.078125 -0.3125 C 7.398438 0 6.632812 0.15625 5.78125 0.15625 C 4.757812 0.15625 3.851562 -0.0625 3.0625 -0.5 C 2.269531 -0.9375 1.644531 -1.554688 1.1875 -2.359375 C 0.738281 -3.171875 0.515625 -4.117188 0.515625 -5.203125 C 0.515625 -6.285156 0.734375 -7.234375 1.171875 -8.046875 C 1.617188 -8.859375 2.238281 -9.476562 3.03125 -9.90625 C 3.832031 -10.34375 4.75 -10.5625 5.78125 -10.5625 C 6.789062 -10.5625 7.6875 -10.347656 8.46875 -9.921875 C 9.257812 -9.503906 9.875 -8.90625 10.3125 -8.125 C 10.757812 -7.34375 10.984375 -6.425781 10.984375 -5.375 Z M 7.71875 -6.21875 C 7.71875 -6.769531 7.53125 -7.207031 7.15625 -7.53125 C 6.78125 -7.851562 6.3125 -8.015625 5.75 -8.015625 C 5.21875 -8.015625 4.765625 -7.859375 4.390625 -7.546875 C 4.023438 -7.234375 3.800781 -6.789062 3.71875 -6.21875 Z M 7.71875 -6.21875 "/></g></g></g><g fill="#5271ff" fill-opacity="1"><g transform="translate(172.026272, 104.71088)"><g><path d="M 4.34375 -8.9375 C 4.644531 -9.425781 5.078125 -9.816406 5.640625 -10.109375 C 6.203125 -10.410156 6.84375 -10.5625 7.5625 -10.5625 C 8.414062 -10.5625 9.191406 -10.34375 9.890625 -9.90625 C 10.585938 -9.476562 11.140625 -8.859375 11.546875 -8.046875 C 11.953125 -7.234375 12.15625 -6.296875 12.15625 -5.234375 C 12.15625 -4.160156 11.953125 -3.210938 11.546875 -2.390625 C 11.140625 -1.578125 10.585938 -0.945312 9.890625 -0.5 C 9.191406 -0.0625 8.414062 0.15625 7.5625 0.15625 C 6.820312 0.15625 6.175781 0.0078125 5.625 -0.28125 C 5.082031 -0.582031 4.65625 -0.972656 4.34375 -1.453125 L 4.34375 0 L 1.15625 0 L 1.15625 -13.8125 L 4.34375 -13.8125 Z M 8.90625 -5.234375 C 8.90625 -6.023438 8.679688 -6.644531 8.234375 -7.09375 C 7.796875 -7.550781 7.253906 -7.78125 6.609375 -7.78125 C 5.972656 -7.78125 5.429688 -7.550781 4.984375 -7.09375 C 4.546875 -6.632812 4.328125 -6.003906 4.328125 -5.203125 C 4.328125 -4.410156 4.546875 -3.78125 4.984375 -3.3125 C 5.429688 -2.851562 5.972656 -2.625 6.609375 -2.625 C 7.242188 -2.625 7.785156 -2.859375 8.234375 -3.328125 C 8.679688 -3.796875 8.90625 -4.429688 8.90625 -5.234375 Z M 8.90625 -5.234375 "/></g></g></g><g fill="#5271ff" fill-opacity="1"><g transform="translate(186.108534, 104.71088)"><g/></g></g><g fill="#5271ff" fill-opacity="1"><g transform="translate(191.468754, 104.71088)"><g><path d="M 6.0625 -13.109375 C 7.445312 -13.109375 8.65625 -12.832031 9.6875 -12.28125 C 10.71875 -11.738281 11.515625 -10.972656 12.078125 -9.984375 C 12.648438 -8.992188 12.9375 -7.847656 12.9375 -6.546875 C 12.9375 -5.265625 12.648438 -4.125 12.078125 -3.125 C 11.515625 -2.132812 10.710938 -1.363281 9.671875 -0.8125 C 8.640625 -0.269531 7.4375 0 6.0625 0 L 1.15625 0 L 1.15625 -13.109375 Z M 5.859375 -2.765625 C 7.066406 -2.765625 8.003906 -3.09375 8.671875 -3.75 C 9.347656 -4.414062 9.6875 -5.347656 9.6875 -6.546875 C 9.6875 -7.753906 9.347656 -8.691406 8.671875 -9.359375 C 8.003906 -10.035156 7.066406 -10.375 5.859375 -10.375 L 4.34375 -10.375 L 4.34375 -2.765625 Z M 5.859375 -2.765625 "/></g></g></g><g fill="#5271ff" fill-opacity="1"><g transform="translate(206.447507, 104.71088)"><g><path d="M 10.984375 -5.375 C 10.984375 -5.070312 10.960938 -4.757812 10.921875 -4.4375 L 3.703125 -4.4375 C 3.742188 -3.789062 3.945312 -3.296875 4.3125 -2.953125 C 4.6875 -2.617188 5.140625 -2.453125 5.671875 -2.453125 C 6.472656 -2.453125 7.03125 -2.785156 7.34375 -3.453125 L 10.734375 -3.453125 C 10.554688 -2.765625 10.238281 -2.144531 9.78125 -1.59375 C 9.332031 -1.050781 8.765625 -0.625 8.078125 -0.3125 C 7.398438 0 6.632812 0.15625 5.78125 0.15625 C 4.757812 0.15625 3.851562 -0.0625 3.0625 -0.5 C 2.269531 -0.9375 1.644531 -1.554688 1.1875 -2.359375 C 0.738281 -3.171875 0.515625 -4.117188 0.515625 -5.203125 C 0.515625 -6.285156 0.734375 -7.234375 1.171875 -8.046875 C 1.617188 -8.859375 2.238281 -9.476562 3.03125 -9.90625 C 3.832031 -10.34375 4.75 -10.5625 5.78125 -10.5625 C 6.789062 -10.5625 7.6875 -10.347656 8.46875 -9.921875 C 9.257812 -9.503906 9.875 -8.90625 10.3125 -8.125 C 10.757812 -7.34375 10.984375 -6.425781 10.984375 -5.375 Z M 7.71875 -6.21875 C 7.71875 -6.769531 7.53125 -7.207031 7.15625 -7.53125 C 6.78125 -7.851562 6.3125 -8.015625 5.75 -8.015625 C 5.21875 -8.015625 4.765625 -7.859375 4.390625 -7.546875 C 4.023438 -7.234375 3.800781 -6.789062 3.71875 -6.21875 Z M 7.71875 -6.21875 "/></g></g></g><g fill="#5271ff" fill-opacity="1"><g transform="translate(219.353139, 104.71088)"><g><path d="M 5.84375 -2.984375 L 8.109375 -10.421875 L 11.5 -10.421875 L 7.8125 0 L 3.859375 0 L 0.171875 -10.421875 L 3.578125 -10.421875 Z M 5.84375 -2.984375 "/></g></g></g><g fill="#5271ff" fill-opacity="1"><g transform="translate(232.445535, 104.71088)"><g><path d="M 10.984375 -5.375 C 10.984375 -5.070312 10.960938 -4.757812 10.921875 -4.4375 L 3.703125 -4.4375 C 3.742188 -3.789062 3.945312 -3.296875 4.3125 -2.953125 C 4.6875 -2.617188 5.140625 -2.453125 5.671875 -2.453125 C 6.472656 -2.453125 7.03125 -2.785156 7.34375 -3.453125 L 10.734375 -3.453125 C 10.554688 -2.765625 10.238281 -2.144531 9.78125 -1.59375 C 9.332031 -1.050781 8.765625 -0.625 8.078125 -0.3125 C 7.398438 0 6.632812 0.15625 5.78125 0.15625 C 4.757812 0.15625 3.851562 -0.0625 3.0625 -0.5 C 2.269531 -0.9375 1.644531 -1.554688 1.1875 -2.359375 C 0.738281 -3.171875 0.515625 -4.117188 0.515625 -5.203125 C 0.515625 -6.285156 0.734375 -7.234375 1.171875 -8.046875 C 1.617188 -8.859375 2.238281 -9.476562 3.03125 -9.90625 C 3.832031 -10.34375 4.75 -10.5625 5.78125 -10.5625 C 6.789062 -10.5625 7.6875 -10.347656 8.46875 -9.921875 C 9.257812 -9.503906 9.875 -8.90625 10.3125 -8.125 C 10.757812 -7.34375 10.984375 -6.425781 10.984375 -5.375 Z M 7.71875 -6.21875 C 7.71875 -6.769531 7.53125 -7.207031 7.15625 -7.53125 C 6.78125 -7.851562 6.3125 -8.015625 5.75 -8.015625 C 5.21875 -8.015625 4.765625 -7.859375 4.390625 -7.546875 C 4.023438 -7.234375 3.800781 -6.789062 3.71875 -6.21875 Z M 7.71875 -6.21875 "/></g></g></g><g fill="#5271ff" fill-opacity="1"><g transform="translate(245.351167, 104.71088)"><g><path d="M 4.34375 -13.8125 L 4.34375 0 L 1.15625 0 L 1.15625 -13.8125 Z M 4.34375 -13.8125 "/></g></g></g><g fill="#5271ff" fill-opacity="1"><g transform="translate(252.261562, 104.71088)"><g><path d="M 5.90625 0.15625 C 4.882812 0.15625 3.960938 -0.0625 3.140625 -0.5 C 2.328125 -0.9375 1.6875 -1.554688 1.21875 -2.359375 C 0.75 -3.171875 0.515625 -4.117188 0.515625 -5.203125 C 0.515625 -6.273438 0.75 -7.21875 1.21875 -8.03125 C 1.695312 -8.851562 2.347656 -9.476562 3.171875 -9.90625 C 3.992188 -10.34375 4.914062 -10.5625 5.9375 -10.5625 C 6.957031 -10.5625 7.878906 -10.34375 8.703125 -9.90625 C 9.523438 -9.476562 10.171875 -8.851562 10.640625 -8.03125 C 11.117188 -7.21875 11.359375 -6.273438 11.359375 -5.203125 C 11.359375 -4.140625 11.117188 -3.195312 10.640625 -2.375 C 10.160156 -1.5625 9.503906 -0.9375 8.671875 -0.5 C 7.847656 -0.0625 6.925781 0.15625 5.90625 0.15625 Z M 5.90625 -2.609375 C 6.507812 -2.609375 7.023438 -2.832031 7.453125 -3.28125 C 7.890625 -3.726562 8.109375 -4.367188 8.109375 -5.203125 C 8.109375 -6.035156 7.898438 -6.675781 7.484375 -7.125 C 7.066406 -7.582031 6.550781 -7.8125 5.9375 -7.8125 C 5.3125 -7.8125 4.789062 -7.585938 4.375 -7.140625 C 3.96875 -6.703125 3.765625 -6.054688 3.765625 -5.203125 C 3.765625 -4.367188 3.96875 -3.726562 4.375 -3.28125 C 4.78125 -2.832031 5.289062 -2.609375 5.90625 -2.609375 Z M 5.90625 -2.609375 "/></g></g></g><g fill="#5271ff" fill-opacity="1"><g transform="translate(265.559404, 104.71088)"><g><path d="M 4.34375 -8.9375 C 4.65625 -9.425781 5.082031 -9.816406 5.625 -10.109375 C 6.175781 -10.410156 6.820312 -10.5625 7.5625 -10.5625 C 8.414062 -10.5625 9.191406 -10.34375 9.890625 -9.90625 C 10.585938 -9.476562 11.140625 -8.859375 11.546875 -8.046875 C 11.953125 -7.234375 12.15625 -6.296875 12.15625 -5.234375 C 12.15625 -4.160156 11.953125 -3.210938 11.546875 -2.390625 C 11.140625 -1.578125 10.585938 -0.945312 9.890625 -0.5 C 9.191406 -0.0625 8.414062 0.15625 7.5625 0.15625 C 6.84375 0.15625 6.203125 0.00390625 5.640625 -0.296875 C 5.085938 -0.597656 4.65625 -0.984375 4.34375 -1.453125 L 4.34375 4.96875 L 1.15625 4.96875 L 1.15625 -10.421875 L 4.34375 -10.421875 Z M 8.90625 -5.234375 C 8.90625 -6.023438 8.679688 -6.644531 8.234375 -7.09375 C 7.796875 -7.550781 7.253906 -7.78125 6.609375 -7.78125 C 5.972656 -7.78125 5.429688 -7.550781 4.984375 -7.09375 C 4.546875 -6.632812 4.328125 -6.003906 4.328125 -5.203125 C 4.328125 -4.410156 4.546875 -3.78125 4.984375 -3.3125 C 5.429688 -2.851562 5.972656 -2.625 6.609375 -2.625 C 7.242188 -2.625 7.785156 -2.859375 8.234375 -3.328125 C 8.679688 -3.796875 8.90625 -4.429688 8.90625 -5.234375 Z M 8.90625 -5.234375 "/></g></g></g><g fill="#5271ff" fill-opacity="1"><g transform="translate(279.641666, 104.71088)"><g><path d="M 10.984375 -5.375 C 10.984375 -5.070312 10.960938 -4.757812 10.921875 -4.4375 L 3.703125 -4.4375 C 3.742188 -3.789062 3.945312 -3.296875 4.3125 -2.953125 C 4.6875 -2.617188 5.140625 -2.453125 5.671875 -2.453125 C 6.472656 -2.453125 7.03125 -2.785156 7.34375 -3.453125 L 10.734375 -3.453125 C 10.554688 -2.765625 10.238281 -2.144531 9.78125 -1.59375 C 9.332031 -1.050781 8.765625 -0.625 8.078125 -0.3125 C 7.398438 0 6.632812 0.15625 5.78125 0.15625 C 4.757812 0.15625 3.851562 -0.0625 3.0625 -0.5 C 2.269531 -0.9375 1.644531 -1.554688 1.1875 -2.359375 C 0.738281 -3.171875 0.515625 -4.117188 0.515625 -5.203125 C 0.515625 -6.285156 0.734375 -7.234375 1.171875 -8.046875 C 1.617188 -8.859375 2.238281 -9.476562 3.03125 -9.90625 C 3.832031 -10.34375 4.75 -10.5625 5.78125 -10.5625 C 6.789062 -10.5625 7.6875 -10.347656 8.46875 -9.921875 C 9.257812 -9.503906 9.875 -8.90625 10.3125 -8.125 C 10.757812 -7.34375 10.984375 -6.425781 10.984375 -5.375 Z M 7.71875 -6.21875 C 7.71875 -6.769531 7.53125 -7.207031 7.15625 -7.53125 C 6.78125 -7.851562 6.3125 -8.015625 5.75 -8.015625 C 5.21875 -8.015625 4.765625 -7.859375 4.390625 -7.546875 C 4.023438 -7.234375 3.800781 -6.789062 3.71875 -6.21875 Z M 7.71875 -6.21875 "/></g></g></g><g fill="#5271ff" fill-opacity="1"><g transform="translate(292.547298, 104.71088)"><g><path d="M 4.34375 -8.6875 C 4.71875 -9.257812 5.1875 -9.707031 5.75 -10.03125 C 6.3125 -10.363281 6.9375 -10.53125 7.625 -10.53125 L 7.625 -7.15625 L 6.734375 -7.15625 C 5.941406 -7.15625 5.34375 -6.984375 4.9375 -6.640625 C 4.539062 -6.296875 4.34375 -5.695312 4.34375 -4.84375 L 4.34375 0 L 1.15625 0 L 1.15625 -10.421875 L 4.34375 -10.421875 Z M 4.34375 -8.6875 "/></g></g></g></svg>